<svg width="26" height="26" viewBox="0 0 26 26" fill="none" xmlns="http://www.w3.org/2000/svg">
<path d="M22.624 3.38281C22.2389 2.99766 21.7817 2.69214 21.2785 2.4837C20.7754 2.27525 20.236 2.16797 19.6914 2.16797C19.1468 2.16797 18.6075 2.27525 18.1043 2.4837C17.6011 2.69214 17.1439 2.99766 16.7588 3.38281L15.5672 4.57664C15.5075 4.62421 15.453 4.67796 15.4047 4.73697L3.57465 16.5691C3.4234 16.72 3.32012 16.9122 3.27782 17.1216L2.18582 22.5383C2.1502 22.7134 2.15842 22.8945 2.20976 23.0656C2.26109 23.2368 2.35395 23.3925 2.48006 23.5191C2.60618 23.6456 2.76162 23.739 2.93257 23.7909C3.10351 23.8428 3.28464 23.8517 3.45982 23.8166L8.88515 22.7333C9.09456 22.691 9.28678 22.5877 9.43765 22.4365L22.624 9.25014C23.0091 8.86505 23.3147 8.40786 23.5231 7.90469C23.7315 7.40151 23.8388 6.8622 23.8388 6.31756C23.8388 5.77292 23.7315 5.23361 23.5231 4.73043C23.3147 4.22726 23.0091 3.77007 22.624 3.38498M16.2518 6.95781L19.0533 9.75931L8.13765 20.6728L4.63199 21.3748L5.33615 17.8735L16.2518 6.95781ZM20.5852 8.22748L17.7837 5.42381L18.2907 4.91681C18.4737 4.72926 18.6921 4.5799 18.9332 4.47737C19.1744 4.37485 19.4335 4.32121 19.6955 4.31955C19.9575 4.31789 20.2173 4.36826 20.4597 4.46772C20.7022 4.56719 20.9224 4.71378 21.1078 4.899C21.2931 5.08421 21.4399 5.30438 21.5396 5.54673C21.6392 5.78908 21.6898 6.0488 21.6883 6.31083C21.6869 6.57287 21.6334 6.83201 21.5311 7.07324C21.4288 7.31447 21.2796 7.53299 21.0922 7.71614L20.5852 8.22748Z" fill="#5EB66E"/>
</svg>
