<svg width="414" height="429" viewBox="0 0 414 429" fill="none" xmlns="http://www.w3.org/2000/svg">
<path d="M294.383 44.3133C296.075 40.8987 294.73 36.7449 291.291 35.1031C264.742 22.4292 235.758 15.9226 206.415 16.087C177.072 16.2514 148.158 23.0829 121.744 36.0545C118.324 37.7341 117.025 41.9011 118.754 45.2966L140.256 87.5246C142.036 91.0195 146.333 92.3533 149.882 90.6857C167.704 82.3127 187.086 77.9079 206.744 77.7978C226.403 77.6877 245.83 81.8751 263.741 90.0481C267.308 91.6759 271.589 90.2956 273.33 86.7825L294.383 44.3133Z" fill="#FFCF33"/>
<path d="M109.376 53.014C107.361 49.6451 102.964 48.5803 99.7168 50.7855C75.3942 67.3036 54.9058 89.1413 39.7423 114.764C24.5257 140.477 15.08 169.311 12.0509 199.18C11.6621 203.013 14.5697 206.347 18.4127 206.626L64.501 209.967C68.3697 210.247 71.7115 207.325 72.1607 203.472C74.4972 183.434 80.9847 164.115 91.2186 146.822C101.463 129.511 115.195 114.681 131.468 103.304C134.589 101.123 135.617 96.9076 133.663 93.6398L109.376 53.014Z" fill="#50D314"/>
<path d="M303.719 53.014C305.734 49.6451 310.131 48.5803 313.378 50.7855C337.701 67.3036 358.189 89.1413 373.353 114.764C388.569 140.477 398.015 169.311 401.044 199.18C401.433 203.013 398.525 206.347 394.682 206.626L348.594 209.967C344.725 210.247 341.384 207.325 340.934 203.472C338.598 183.434 332.11 164.115 321.876 146.822C311.632 129.511 297.9 114.681 281.627 103.304C278.506 101.123 277.478 96.9076 279.432 93.6398L303.719 53.014Z" fill="#E00E0E"/>
<circle cx="209" cy="220" r="65" fill="#E00E0E"/>
<path fill-rule="evenodd" clip-rule="evenodd" d="M311.335 162.193C312.126 161.467 311.372 160.175 310.35 160.506L246.498 181.202C236.887 172.383 224.072 167 210 167C180.177 167 156 191.177 156 221C156 250.823 180.177 275 210 275C239.823 275 264 250.823 264 221C264 216.267 263.391 211.676 262.247 207.302L311.335 162.193Z" fill="#242932"/>
<path d="M192.255 231L187.497 222.596H185.457V231H181.132V209.434H189.227C190.895 209.434 192.316 209.733 193.49 210.33C194.665 210.907 195.54 211.7 196.117 212.709C196.714 213.698 197.013 214.81 197.013 216.046C197.013 217.467 196.601 218.755 195.777 219.908C194.953 221.041 193.727 221.824 192.1 222.256L197.26 231H192.255ZM185.457 219.352H189.072C190.246 219.352 191.122 219.074 191.698 218.518C192.275 217.941 192.564 217.148 192.564 216.139C192.564 215.15 192.275 214.388 191.698 213.852C191.122 213.296 190.246 213.018 189.072 213.018H185.457V219.352ZM203.119 211.844C202.357 211.844 201.718 211.607 201.203 211.134C200.709 210.639 200.462 210.032 200.462 209.311C200.462 208.59 200.709 207.992 201.203 207.519C201.718 207.024 202.357 206.777 203.119 206.777C203.881 206.777 204.509 207.024 205.003 207.519C205.518 207.992 205.776 208.59 205.776 209.311C205.776 210.032 205.518 210.639 205.003 211.134C204.509 211.607 203.881 211.844 203.119 211.844ZM205.25 213.883V231H200.925V213.883H205.25ZM216.074 231.278C214.674 231.278 213.417 231.031 212.305 230.537C211.193 230.022 210.307 229.332 209.648 228.466C209.009 227.601 208.659 226.644 208.597 225.593H212.954C213.036 226.252 213.355 226.798 213.911 227.231C214.488 227.663 215.199 227.879 216.043 227.879C216.867 227.879 217.506 227.715 217.959 227.385C218.433 227.056 218.669 226.633 218.669 226.118C218.669 225.562 218.381 225.15 217.804 224.882C217.248 224.594 216.352 224.285 215.116 223.956C213.839 223.647 212.789 223.327 211.965 222.998C211.162 222.668 210.461 222.164 209.864 221.484C209.287 220.804 208.999 219.888 208.999 218.734C208.999 217.787 209.267 216.921 209.802 216.139C210.358 215.356 211.141 214.738 212.15 214.285C213.18 213.832 214.385 213.605 215.765 213.605C217.804 213.605 219.432 214.12 220.647 215.15C221.862 216.159 222.532 217.529 222.655 219.259H218.515C218.453 218.58 218.165 218.044 217.65 217.653C217.156 217.241 216.486 217.035 215.642 217.035C214.859 217.035 214.251 217.179 213.819 217.467C213.407 217.756 213.201 218.157 213.201 218.672C213.201 219.249 213.489 219.692 214.066 220.001C214.643 220.289 215.539 220.588 216.754 220.897C217.99 221.206 219.009 221.525 219.813 221.855C220.616 222.184 221.306 222.699 221.883 223.399C222.48 224.079 222.789 224.985 222.81 226.118C222.81 227.107 222.532 227.993 221.975 228.775C221.44 229.558 220.657 230.176 219.627 230.629C218.618 231.062 217.434 231.278 216.074 231.278ZM236.494 231L230.686 223.708V231H226.36V208.137H230.686V221.144L236.433 213.883H242.056L234.517 222.473L242.118 231H236.494Z" fill="white"/>
<path d="M344.432 112.334L332.229 123.845L329.92 121.397L335.113 116.499L330.182 111.271L324.989 116.169L322.68 113.722L334.884 102.211L337.193 104.658L332.175 109.391L337.106 114.619L342.124 109.886L344.432 112.334Z" fill="white"/>
<path d="M349.379 118.918L336.034 129.084L333.995 126.408L347.34 116.242L349.379 118.918Z" fill="white"/>
<path d="M354.068 135.533C354.478 134.843 354.671 134.114 354.645 133.348C354.62 132.581 354.379 131.811 353.922 131.039C353.416 130.184 352.774 129.54 351.996 129.107C351.218 128.673 350.36 128.483 349.423 128.535C348.486 128.587 347.548 128.89 346.611 129.445C345.645 130.016 344.914 130.7 344.418 131.497C343.929 132.307 343.692 133.165 343.706 134.069C343.719 134.973 343.991 135.873 344.522 136.77C345.175 137.873 345.999 138.604 346.994 138.965C348.003 139.317 349.097 139.294 350.276 138.894L347.338 133.93L349.551 132.62L354.178 140.439L351.655 141.932C350.534 142.335 349.358 142.472 348.128 142.343C346.898 142.215 345.723 141.803 344.603 141.106C343.505 140.415 342.589 139.449 341.855 138.208C341.03 136.816 340.594 135.37 340.545 133.873C340.519 132.38 340.872 130.98 341.605 129.67C342.347 128.375 343.428 127.307 344.848 126.467C346.268 125.626 347.724 125.192 349.217 125.166C350.731 125.145 352.129 125.509 353.41 126.259C354.714 127.014 355.774 128.081 356.59 129.46C357.553 131.087 357.989 132.737 357.899 134.41C357.823 136.075 357.203 137.559 356.038 138.863L354.068 135.533Z" fill="white"/>
<path d="M368.189 155.298L352.534 161.328L351.324 158.189L357.985 155.622L355.402 148.917L348.741 151.483L347.531 148.343L363.186 142.312L364.396 145.452L357.959 147.932L360.542 154.637L366.979 152.158L368.189 155.298Z" fill="white"/>
<path d="M173.849 57.6441L170.562 58.8337L159.049 50.2812L163.119 61.5273L159.832 62.7169L153.893 46.3056L157.18 45.116L168.701 53.692L164.622 42.4225L167.909 41.2329L173.849 57.6441Z" fill="white"/>
<path d="M185.042 55.486C183.437 55.777 181.895 55.6675 180.415 55.1576C178.935 54.6477 177.682 53.8007 176.656 52.6165C175.626 51.416 174.958 49.9723 174.652 48.2853C174.349 46.6146 174.471 45.0447 175.016 43.5755C175.559 42.0899 176.434 40.8487 177.64 39.8518C178.847 38.8548 180.252 38.2109 181.858 37.9199C183.479 37.6259 185.021 37.7354 186.485 38.2482C187.964 38.7582 189.211 39.6149 190.224 40.8184C191.251 42.0025 191.916 43.4299 192.218 45.1005C192.524 46.7875 192.406 48.3738 191.863 49.8594C191.334 51.3256 190.466 52.5572 189.26 53.5541C188.053 54.551 186.647 55.195 185.042 55.486ZM184.485 52.415C185.517 52.2279 186.385 51.8338 187.088 51.2327C187.788 50.6152 188.28 49.8323 188.565 48.884C188.85 47.9358 188.889 46.8884 188.681 45.7419C188.473 44.5954 188.071 43.6364 187.474 42.8649C186.874 42.077 186.14 41.525 185.271 41.2089C184.401 40.8929 183.451 40.8284 182.419 41.0154C181.387 41.2025 180.511 41.5981 179.792 42.2022C179.089 42.8034 178.595 43.578 178.31 44.5263C178.022 45.4582 177.982 46.4973 178.19 47.6438C178.398 48.7904 178.802 49.7576 179.401 50.5454C180.001 51.3333 180.737 51.8935 181.609 52.226C182.495 52.5391 183.454 52.6021 184.485 52.415Z" fill="white"/>
<path d="M206.044 53.4453L202.056 46.7368L200.408 46.7717L200.552 53.5616L197.057 53.6356L196.688 36.2115L203.229 36.073C204.577 36.0445 205.73 36.2615 206.689 36.724C207.647 37.1699 208.368 37.7956 208.852 38.6012C209.351 39.3898 209.611 40.2834 209.633 41.2819C209.657 42.4302 209.346 43.4773 208.7 44.4234C208.054 45.3528 207.077 46.0061 205.77 46.3835L210.088 53.3597L206.044 53.4453ZM200.353 44.1506L203.274 44.0887C204.222 44.0687 204.925 43.829 205.381 43.3698C205.837 42.894 206.057 42.2483 206.039 41.4329C206.023 40.6341 205.777 40.0232 205.301 39.6004C204.826 39.1609 204.114 38.9513 203.165 38.9713L200.245 39.0332L200.353 44.1506Z" fill="white"/>
<path d="M234.302 38.8897L231.78 56.1344L228.322 55.6287L229.961 44.4123L223.702 54.9533L221.083 54.5705L218.078 42.6749L216.438 53.8914L212.979 53.3858L215.5 36.1411L219.429 36.7153L223.039 50.3395L230.398 38.319L234.302 38.8897Z" fill="white"/>
<path d="M246.062 57.3376L239.468 55.1696L237.339 57.9655L233.853 56.8191L245.258 42.1968L249.124 43.468L249.626 62.0053L246.116 60.8511L246.062 57.3376ZM246.034 54.3847L245.915 46.671L241.243 52.8094L246.034 54.3847Z" fill="white"/>
<path d="M255.538 61.9542L260.73 64.4086L259.545 66.9143L251.193 62.9658L258.642 47.2098L261.802 48.7038L255.538 61.9542Z" fill="white"/>
<path d="M58.7294 153.372L61.0784 148.358L63.4978 149.492L59.719 157.557L44.5047 150.428L45.9345 147.377L58.7294 153.372Z" fill="white"/>
<path d="M68.724 141.169C67.8689 142.489 66.7738 143.5 65.4388 144.203C64.1038 144.906 62.6814 145.227 61.1717 145.167C59.6485 145.098 58.1933 144.614 56.8061 143.715C55.4324 142.825 54.4095 141.704 53.7374 140.35C53.0519 138.988 52.7571 137.555 52.8531 136.049C52.9491 134.543 53.4246 133.13 54.2797 131.811C55.1436 130.477 56.2386 129.466 57.5649 128.776C58.9 128.073 60.3247 127.763 61.8392 127.846C63.3489 127.906 64.7906 128.381 66.1643 129.271C67.5515 130.17 68.5879 131.3 69.2734 132.662C69.9542 134.002 70.2466 135.425 70.1506 136.93C70.0546 138.436 69.5791 139.849 68.724 141.169ZM66.1988 139.533C66.7485 138.684 67.0442 137.815 67.0859 136.924C67.1142 136.024 66.8892 135.162 66.411 134.335C65.9328 133.509 65.2223 132.791 64.2796 132.18C63.3368 131.569 62.3975 131.219 61.4616 131.129C60.5122 131.03 59.6395 131.182 58.8436 131.584C58.0477 131.986 57.3749 132.611 56.8252 133.46C56.2754 134.308 55.9754 135.184 55.9249 136.089C55.8832 136.98 56.1014 137.838 56.5796 138.664C57.0443 139.481 57.7481 140.195 58.6908 140.806C59.6336 141.417 60.5796 141.772 61.529 141.871C62.4784 141.97 63.3578 141.822 64.1672 141.429C64.9719 141.013 65.649 140.381 66.1988 139.533Z" fill="white"/>
<path d="M75.9909 105.296L84.7087 120.407L81.9293 123.244L71.1766 117.125L77.415 127.853L74.6697 130.689L59.4834 122.148L62.01 119.569L73.4018 126.583L66.4738 115.012L69.1015 112.329L80.627 119.104L73.4474 107.893L75.9909 105.296Z" fill="white"/>
</svg>
