<svg width="414" height="429" viewBox="0 0 414 429" fill="none" xmlns="http://www.w3.org/2000/svg">
<path d="M294.383 44.1961C296.075 40.7815 294.73 36.6277 291.291 34.9859C264.742 22.312 235.758 15.8055 206.415 15.9698C177.072 16.1342 148.158 22.9657 121.744 35.9373C118.324 37.6169 117.025 41.784 118.754 45.1794L140.256 87.4074C142.036 90.9023 146.333 92.2362 149.882 90.5685C167.704 82.1955 187.086 77.7907 206.744 77.6806C226.403 77.5705 245.83 81.7579 263.741 89.931C267.308 91.5588 271.589 90.1784 273.33 86.6653L294.383 44.1961Z" fill="#FFCF33"/>
<path d="M109.375 52.8968C107.361 49.5279 102.964 48.4631 99.7167 50.6683C75.3941 67.1864 54.9058 89.0241 39.7422 114.647C24.5256 140.36 15.0799 169.194 12.0508 199.063C11.662 202.896 14.5696 206.23 18.4126 206.509L64.5009 209.85C68.3697 210.13 71.7114 207.208 72.1607 203.355C74.4972 183.317 80.9847 163.998 91.2185 146.705C101.463 129.394 115.195 114.564 131.468 103.187C134.588 101.005 135.617 96.7904 133.663 93.5226L109.375 52.8968Z" fill="#50D314"/>
<path d="M303.719 52.8968C305.733 49.5279 310.131 48.4631 313.378 50.6683C337.701 67.1864 358.189 89.0241 373.353 114.647C388.569 140.36 398.015 169.194 401.044 199.063C401.433 202.896 398.525 206.23 394.682 206.509L348.594 209.85C344.725 210.13 341.383 207.208 340.934 203.355C338.598 183.317 332.11 163.998 321.876 146.705C311.632 129.394 297.9 114.564 281.627 103.187C278.506 101.005 277.478 96.7904 279.432 93.5226L303.719 52.8968Z" fill="#E00E0E"/>
<circle cx="209" cy="219.88" r="65" fill="#50D314"/>
<path fill-rule="evenodd" clip-rule="evenodd" d="M112.48 153.937C111.483 153.538 110.643 154.775 111.382 155.554L157.601 204.229C153.792 216.704 154.465 230.588 160.536 243.283C173.403 270.188 205.644 281.568 232.549 268.701C259.454 255.834 270.834 223.592 257.967 196.687C245.101 169.782 212.859 158.402 185.954 171.269C181.684 173.311 177.805 175.841 174.352 178.76L112.48 153.937Z" fill="#242932"/>
<path d="M190.255 230.996L185.497 222.592H183.457V230.996H179.132V209.43H187.227C188.895 209.43 190.316 209.729 191.49 210.326C192.665 210.903 193.54 211.696 194.117 212.705C194.714 213.694 195.013 214.806 195.013 216.042C195.013 217.463 194.601 218.751 193.777 219.904C192.953 221.037 191.727 221.82 190.1 222.252L195.26 230.996H190.255ZM183.457 219.348H187.072C188.246 219.348 189.122 219.07 189.698 218.514C190.275 217.937 190.564 217.144 190.564 216.135C190.564 215.146 190.275 214.384 189.698 213.849C189.122 213.292 188.246 213.014 187.072 213.014H183.457V219.348ZM201.119 211.84C200.357 211.84 199.718 211.603 199.203 211.13C198.709 210.635 198.462 210.028 198.462 209.307C198.462 208.586 198.709 207.988 199.203 207.515C199.718 207.02 200.357 206.773 201.119 206.773C201.881 206.773 202.509 207.02 203.003 207.515C203.518 207.988 203.776 208.586 203.776 209.307C203.776 210.028 203.518 210.635 203.003 211.13C202.509 211.603 201.881 211.84 201.119 211.84ZM203.25 213.879V230.996H198.925V213.879H203.25ZM214.074 231.274C212.674 231.274 211.417 231.027 210.305 230.533C209.193 230.018 208.307 229.328 207.648 228.463C207.009 227.597 206.659 226.64 206.597 225.589H210.954C211.036 226.248 211.355 226.794 211.911 227.227C212.488 227.659 213.199 227.876 214.043 227.876C214.867 227.876 215.506 227.711 215.959 227.381C216.433 227.052 216.669 226.629 216.669 226.114C216.669 225.558 216.381 225.146 215.804 224.879C215.248 224.59 214.352 224.281 213.116 223.952C211.839 223.643 210.789 223.323 209.965 222.994C209.162 222.664 208.461 222.16 207.864 221.48C207.287 220.8 206.999 219.884 206.999 218.73C206.999 217.783 207.267 216.918 207.802 216.135C208.358 215.352 209.141 214.734 210.15 214.281C211.18 213.828 212.385 213.601 213.765 213.601C215.804 213.601 217.432 214.116 218.647 215.146C219.862 216.155 220.532 217.525 220.655 219.255H216.515C216.453 218.576 216.165 218.04 215.65 217.649C215.156 217.237 214.486 217.031 213.642 217.031C212.859 217.031 212.251 217.175 211.819 217.463C211.407 217.752 211.201 218.153 211.201 218.668C211.201 219.245 211.489 219.688 212.066 219.997C212.643 220.285 213.539 220.584 214.754 220.893C215.99 221.202 217.009 221.521 217.813 221.851C218.616 222.18 219.306 222.695 219.883 223.396C220.48 224.075 220.789 224.982 220.81 226.114C220.81 227.103 220.532 227.989 219.975 228.772C219.44 229.554 218.657 230.172 217.627 230.625C216.618 231.058 215.434 231.274 214.074 231.274ZM234.494 230.996L228.686 223.705V230.996H224.36V208.133H228.686V221.14L234.433 213.879H240.056L232.517 222.469L240.118 230.996H234.494Z" fill="white"/>
<path d="M344.433 112.217L332.229 123.727L329.92 121.28L335.113 116.382L330.182 111.154L324.989 116.052L322.68 113.604L334.884 102.093L337.193 104.541L332.175 109.274L337.106 114.502L342.124 109.769L344.433 112.217Z" fill="white"/>
<path d="M349.379 118.801L336.034 128.967L333.995 126.291L347.34 116.124L349.379 118.801Z" fill="white"/>
<path d="M354.068 135.416C354.478 134.726 354.671 133.997 354.645 133.23C354.62 132.464 354.379 131.694 353.922 130.922C353.416 130.067 352.774 129.423 351.996 128.989C351.218 128.556 350.36 128.365 349.423 128.417C348.486 128.469 347.548 128.773 346.611 129.328C345.645 129.899 344.914 130.583 344.418 131.38C343.929 132.19 343.692 133.047 343.706 133.952C343.719 134.856 343.991 135.756 344.522 136.652C345.175 137.755 345.999 138.487 346.994 138.848C348.003 139.2 349.097 139.176 350.276 138.777L347.338 133.813L349.551 132.503L354.178 140.321L351.655 141.815C350.534 142.217 349.358 142.355 348.128 142.226C346.898 142.098 345.723 141.686 344.603 140.989C343.505 140.298 342.589 139.332 341.855 138.091C341.03 136.699 340.594 135.253 340.545 133.755C340.519 132.263 340.872 130.862 341.605 129.553C342.347 128.258 343.428 127.19 344.848 126.349C346.268 125.509 347.724 125.075 349.217 125.049C350.731 125.027 352.129 125.392 353.41 126.141C354.714 126.897 355.774 127.964 356.59 129.343C357.553 130.97 357.989 132.62 357.899 134.293C357.823 135.958 357.203 137.442 356.038 138.746L354.068 135.416Z" fill="white"/>
<path d="M368.188 155.18L352.534 161.211L351.324 158.071L357.985 155.505L355.402 148.799L348.741 151.365L347.531 148.226L363.186 142.195L364.395 145.335L357.959 147.814L360.542 154.52L366.979 152.041L368.188 155.18Z" fill="white"/>
<path d="M173.849 57.526L170.562 58.7156L159.049 50.1631L163.119 61.4091L159.832 62.5987L153.893 46.1875L157.18 44.9979L168.701 53.5738L164.622 42.3043L167.909 41.1147L173.849 57.526Z" fill="white"/>
<path d="M185.042 55.3678C183.437 55.6588 181.895 55.5494 180.415 55.0395C178.935 54.5295 177.682 53.6825 176.656 52.4984C175.626 51.2978 174.958 49.8541 174.652 48.1671C174.349 46.4965 174.471 44.9265 175.016 43.4573C175.559 41.9718 176.434 40.7305 177.64 39.7336C178.847 38.7367 180.252 38.0927 181.858 37.8017C183.479 37.5077 185.021 37.6172 186.485 38.1301C187.964 38.64 189.211 39.4967 190.224 40.7002C191.251 41.8843 191.916 43.3117 192.218 44.9823C192.524 46.6693 192.406 48.2556 191.863 49.7412C191.334 51.2075 190.466 52.439 189.26 53.4359C188.053 54.4329 186.647 55.0768 185.042 55.3678ZM184.485 52.2968C185.517 52.1098 186.385 51.7156 187.088 51.1145C187.788 50.497 188.28 49.7141 188.565 48.7659C188.85 47.8176 188.889 46.7702 188.681 45.6237C188.473 44.4772 188.071 43.5182 187.474 42.7467C186.874 41.9588 186.14 41.4068 185.271 41.0908C184.401 40.7747 183.451 40.7102 182.419 40.8973C181.387 41.0844 180.511 41.4799 179.792 42.0841C179.089 42.6852 178.595 43.4599 178.31 44.4081C178.022 45.34 177.982 46.3792 178.19 47.5257C178.398 48.6722 178.802 49.6394 179.401 50.4273C180.001 51.2152 180.737 51.7753 181.609 52.1078C182.495 52.4209 183.454 52.4839 184.485 52.2968Z" fill="white"/>
<path d="M206.044 53.3272L202.056 46.6186L200.408 46.6535L200.552 53.4434L197.057 53.5174L196.688 36.0933L203.229 35.9548C204.577 35.9263 205.73 36.1433 206.689 36.6058C207.647 37.0517 208.368 37.6775 208.851 38.483C209.351 39.2716 209.611 40.1652 209.632 41.1637C209.657 42.312 209.346 43.3592 208.7 44.3052C208.054 45.2346 207.077 45.888 205.77 46.2653L210.088 53.2415L206.044 53.3272ZM200.353 44.0324L203.274 43.9706C204.222 43.9505 204.925 43.7108 205.381 43.2516C205.837 42.7758 206.057 42.1302 206.039 41.3147C206.022 40.5159 205.776 39.9051 205.301 39.4823C204.826 39.0428 204.114 38.8331 203.165 38.8532L200.245 38.915L200.353 44.0324Z" fill="white"/>
<path d="M234.301 38.7715L231.78 56.0162L228.322 55.5106L229.961 44.2941L223.702 54.8351L221.083 54.4523L218.078 42.5568L216.438 53.7733L212.979 53.2676L215.5 36.0229L219.428 36.5972L223.039 50.2214L230.398 38.2008L234.301 38.7715Z" fill="white"/>
<path d="M246.061 57.2195L239.468 55.0514L237.339 57.8474L233.852 56.701L245.257 42.0786L249.124 43.3498L249.626 61.8871L246.115 60.7329L246.061 57.2195ZM246.034 54.2666L245.915 46.5528L241.242 52.6912L246.034 54.2666Z" fill="white"/>
<path d="M255.538 61.8331L260.73 64.2875L259.545 66.7932L251.193 62.8448L258.642 47.0887L261.802 48.5827L255.538 61.8331Z" fill="white"/>
<path d="M58.7293 153.255L61.0783 148.241L63.4978 149.375L59.7189 157.44L44.5046 150.311L45.9345 147.259L58.7293 153.255Z" fill="white"/>
<path d="M68.7239 141.052C67.8688 142.371 66.7737 143.383 65.4387 144.086C64.1037 144.789 62.6813 145.11 61.1716 145.05C59.6484 144.981 58.1932 144.497 56.806 143.598C55.4323 142.708 54.4094 141.586 53.7374 140.233C53.0518 138.871 52.7571 137.437 52.853 135.932C52.949 134.426 53.4246 133.013 54.2797 131.693C55.1435 130.36 56.2386 129.349 57.5649 128.659C58.8999 127.956 60.3246 127.646 61.8391 127.728C63.3488 127.789 64.7905 128.264 66.1643 129.154C67.5514 130.053 68.5878 131.183 69.2733 132.545C69.9541 133.885 70.2465 135.307 70.1506 136.813C70.0546 138.319 69.579 139.732 68.7239 141.052ZM66.1987 139.416C66.7484 138.567 67.0441 137.697 67.0859 136.807C67.1141 135.907 66.8892 135.044 66.411 134.218C65.9328 133.392 65.2223 132.674 64.2795 132.063C63.3368 131.452 62.3974 131.102 61.4615 131.012C60.5121 130.913 59.6395 131.064 58.8436 131.467C58.0476 131.869 57.3748 132.494 56.8251 133.342C56.2754 134.191 55.9753 135.067 55.9248 135.972C55.8831 136.862 56.1013 137.721 56.5795 138.547C57.0443 139.364 57.748 140.078 58.6908 140.689C59.6335 141.3 60.5796 141.655 61.529 141.754C62.4784 141.852 63.3578 141.705 64.1671 141.312C64.9718 140.896 65.649 140.264 66.1987 139.416Z" fill="white"/>
<path d="M75.9908 105.179L84.7085 120.29L81.9292 123.127L71.1765 117.008L77.4149 127.735L74.6696 130.572L59.4833 122.031L62.0099 119.451L73.4017 126.466L66.4737 114.895L69.1014 112.212L80.6269 118.987L73.4473 107.776L75.9908 105.179Z" fill="white"/>
</svg>
