<svg width="414" height="429" viewBox="0 0 414 429" fill="none" xmlns="http://www.w3.org/2000/svg">
<path d="M294.383 44.1961C296.075 40.7815 294.73 36.6277 291.291 34.9859C264.742 22.312 235.758 15.8055 206.415 15.9698C177.072 16.1342 148.158 22.9657 121.744 35.9373C118.324 37.6169 117.025 41.784 118.754 45.1794L140.256 87.4074C142.036 90.9023 146.333 92.2362 149.882 90.5685C167.704 82.1955 187.086 77.7907 206.744 77.6806C226.403 77.5705 245.83 81.7579 263.741 89.931C267.308 91.5588 271.589 90.1784 273.33 86.6653L294.383 44.1961Z" fill="#FFCF33"/>
<path d="M109.375 52.8968C107.361 49.5279 102.964 48.4631 99.7167 50.6683C75.3941 67.1864 54.9058 89.0241 39.7422 114.647C24.5256 140.36 15.0799 169.194 12.0508 199.063C11.662 202.896 14.5696 206.23 18.4126 206.509L64.5009 209.85C68.3697 210.13 71.7114 207.208 72.1607 203.355C74.4972 183.317 80.9847 163.998 91.2185 146.705C101.463 129.394 115.195 114.564 131.468 103.187C134.588 101.005 135.617 96.7904 133.663 93.5226L109.375 52.8968Z" fill="#50D314"/>
<path d="M303.719 52.8968C305.734 49.5279 310.131 48.4631 313.378 50.6683C337.701 67.1864 358.189 89.0241 373.353 114.647C388.569 140.36 398.015 169.194 401.044 199.063C401.433 202.896 398.525 206.23 394.682 206.509L348.594 209.85C344.725 210.13 341.384 207.208 340.934 203.355C338.598 183.317 332.11 163.998 321.876 146.705C311.632 129.394 297.9 114.564 281.627 103.187C278.506 101.005 277.478 96.7904 279.432 93.5226L303.719 52.8968Z" fill="#E00E0E"/>
<circle cx="209" cy="219.883" r="65" fill="#FFCF33"/>
<path fill-rule="evenodd" clip-rule="evenodd" d="M209.175 102.156C208.941 101.108 207.445 101.115 207.221 102.165L193.218 167.81C180.776 171.724 169.706 180.131 162.67 192.318C147.759 218.146 156.608 251.172 182.436 266.083C208.264 280.995 241.289 272.146 256.201 246.318C271.113 220.49 262.264 187.464 236.436 172.553C232.337 170.186 228.057 168.418 223.696 167.221L209.175 102.156Z" fill="#242932"/>
<path d="M190.255 231L185.497 222.596H183.457V231H179.132V209.434H187.227C188.895 209.434 190.316 209.733 191.49 210.33C192.665 210.907 193.54 211.7 194.117 212.709C194.714 213.698 195.013 214.81 195.013 216.046C195.013 217.467 194.601 218.755 193.777 219.908C192.953 221.041 191.727 221.824 190.1 222.256L195.26 231H190.255ZM183.457 219.352H187.072C188.246 219.352 189.122 219.074 189.698 218.518C190.275 217.941 190.564 217.148 190.564 216.139C190.564 215.15 190.275 214.388 189.698 213.852C189.122 213.296 188.246 213.018 187.072 213.018H183.457V219.352ZM201.119 211.844C200.357 211.844 199.718 211.607 199.203 211.134C198.709 210.639 198.462 210.032 198.462 209.311C198.462 208.59 198.709 207.992 199.203 207.519C199.718 207.024 200.357 206.777 201.119 206.777C201.881 206.777 202.509 207.024 203.003 207.519C203.518 207.992 203.776 208.59 203.776 209.311C203.776 210.032 203.518 210.639 203.003 211.134C202.509 211.607 201.881 211.844 201.119 211.844ZM203.25 213.883V231H198.925V213.883H203.25ZM214.074 231.278C212.674 231.278 211.417 231.031 210.305 230.537C209.193 230.022 208.307 229.332 207.648 228.466C207.009 227.601 206.659 226.644 206.597 225.593H210.954C211.036 226.252 211.355 226.798 211.911 227.231C212.488 227.663 213.199 227.879 214.043 227.879C214.867 227.879 215.506 227.715 215.959 227.385C216.433 227.056 216.669 226.633 216.669 226.118C216.669 225.562 216.381 225.15 215.804 224.882C215.248 224.594 214.352 224.285 213.116 223.956C211.839 223.647 210.789 223.327 209.965 222.998C209.162 222.668 208.461 222.164 207.864 221.484C207.287 220.804 206.999 219.888 206.999 218.734C206.999 217.787 207.267 216.921 207.802 216.139C208.358 215.356 209.141 214.738 210.15 214.285C211.18 213.832 212.385 213.605 213.765 213.605C215.804 213.605 217.432 214.12 218.647 215.15C219.862 216.159 220.532 217.529 220.655 219.259H216.515C216.453 218.58 216.165 218.044 215.65 217.653C215.156 217.241 214.486 217.035 213.642 217.035C212.859 217.035 212.251 217.179 211.819 217.467C211.407 217.756 211.201 218.157 211.201 218.672C211.201 219.249 211.489 219.692 212.066 220.001C212.643 220.289 213.539 220.588 214.754 220.897C215.99 221.206 217.009 221.525 217.813 221.855C218.616 222.184 219.306 222.699 219.883 223.399C220.48 224.079 220.789 224.985 220.81 226.118C220.81 227.107 220.532 227.993 219.975 228.775C219.44 229.558 218.657 230.176 217.627 230.629C216.618 231.062 215.434 231.278 214.074 231.278ZM234.494 231L228.686 223.708V231H224.36V208.137H228.686V221.144L234.433 213.883H240.056L232.517 222.473L240.118 231H234.494Z" fill="white"/>
<path d="M344.432 112.217L332.229 123.727L329.92 121.28L335.113 116.382L330.182 111.154L324.989 116.052L322.68 113.604L334.884 102.093L337.193 104.541L332.175 109.274L337.106 114.502L342.124 109.769L344.432 112.217Z" fill="white"/>
<path d="M349.379 118.801L336.034 128.967L333.995 126.291L347.34 116.124L349.379 118.801Z" fill="white"/>
<path d="M354.068 135.416C354.478 134.726 354.671 133.997 354.645 133.23C354.62 132.464 354.379 131.694 353.922 130.922C353.416 130.067 352.774 129.423 351.996 128.989C351.218 128.556 350.36 128.365 349.423 128.417C348.486 128.469 347.548 128.773 346.611 129.328C345.645 129.899 344.914 130.583 344.418 131.38C343.929 132.19 343.692 133.047 343.706 133.952C343.719 134.856 343.991 135.756 344.522 136.652C345.175 137.755 345.999 138.487 346.994 138.848C348.003 139.2 349.097 139.176 350.276 138.777L347.338 133.813L349.551 132.503L354.178 140.321L351.655 141.815C350.534 142.217 349.358 142.355 348.128 142.226C346.898 142.098 345.723 141.686 344.603 140.989C343.505 140.298 342.589 139.332 341.855 138.091C341.03 136.699 340.594 135.253 340.545 133.755C340.519 132.263 340.872 130.862 341.605 129.553C342.347 128.258 343.428 127.19 344.848 126.349C346.268 125.509 347.724 125.075 349.217 125.049C350.731 125.027 352.129 125.392 353.41 126.141C354.714 126.897 355.774 127.964 356.59 129.343C357.553 130.97 357.989 132.62 357.899 134.293C357.823 135.958 357.203 137.442 356.038 138.746L354.068 135.416Z" fill="white"/>
<path d="M368.189 155.18L352.534 161.211L351.324 158.071L357.985 155.505L355.402 148.799L348.741 151.365L347.531 148.226L363.186 142.195L364.396 145.335L357.959 147.814L360.542 154.52L366.979 152.041L368.189 155.18Z" fill="white"/>
<path d="M173.849 57.5269L170.562 58.7165L159.049 50.1641L163.119 61.4101L159.832 62.5997L153.893 46.1885L157.18 44.9989L168.701 53.5748L164.622 42.3053L167.909 41.1157L173.849 57.5269Z" fill="white"/>
<path d="M185.042 55.3688C183.437 55.6598 181.895 55.5504 180.415 55.0404C178.935 54.5305 177.682 53.6835 176.655 52.4993C175.626 51.2988 174.958 49.8551 174.652 48.1681C174.349 46.4974 174.471 44.9275 175.016 43.4583C175.559 41.9727 176.434 40.7315 177.64 39.7346C178.847 38.7377 180.252 38.0937 181.857 37.8027C183.479 37.5087 185.021 37.6182 186.485 38.1311C187.964 38.641 189.211 39.4977 190.224 40.7012C191.251 41.8853 191.915 43.3127 192.218 44.9833C192.524 46.6703 192.406 48.2566 191.863 49.7422C191.334 51.2084 190.466 52.44 189.259 53.4369C188.053 54.4338 186.647 55.0778 185.042 55.3688ZM184.485 52.2978C185.517 52.1107 186.385 51.7166 187.088 51.1155C187.788 50.498 188.28 49.7151 188.565 48.7668C188.85 47.8186 188.888 46.7712 188.681 45.6247C188.473 44.4782 188.07 43.5192 187.474 42.7477C186.874 41.9598 186.14 41.4078 185.27 41.0917C184.401 40.7757 183.45 40.7112 182.419 40.8983C181.387 41.0853 180.511 41.4809 179.792 42.085C179.089 42.6862 178.595 43.4609 178.31 44.4091C178.022 45.341 177.982 46.3802 178.19 47.5267C178.398 48.6732 178.802 49.6404 179.401 50.4283C180.001 51.2162 180.737 51.7763 181.609 52.1088C182.495 52.4219 183.454 52.4849 184.485 52.2978Z" fill="white"/>
<path d="M206.044 53.3281L202.056 46.6196L200.408 46.6545L200.552 53.4444L197.057 53.5184L196.688 36.0943L203.229 35.9558C204.577 35.9273 205.73 36.1443 206.689 36.6068C207.647 37.0527 208.368 37.6784 208.851 38.484C209.351 39.2726 209.611 40.1662 209.632 41.1647C209.657 42.313 209.346 43.3601 208.7 44.3062C208.054 45.2356 207.077 45.889 205.769 46.2663L210.088 53.2425L206.044 53.3281ZM200.353 44.0334L203.273 43.9715C204.222 43.9515 204.925 43.7118 205.381 43.2526C205.837 42.7768 206.057 42.1311 206.039 41.3157C206.022 40.5169 205.776 39.9061 205.301 39.4832C204.826 39.0438 204.114 38.8341 203.165 38.8542L200.244 38.916L200.353 44.0334Z" fill="white"/>
<path d="M234.301 38.7725L231.78 56.0172L228.322 55.5115L229.961 44.2951L223.702 54.8361L221.083 54.4533L218.078 42.5578L216.438 53.7742L212.979 53.2686L215.5 36.0239L219.428 36.5982L223.039 50.2223L230.398 38.2018L234.301 38.7725Z" fill="white"/>
<path d="M246.062 57.2205L239.468 55.0524L237.339 57.8483L233.853 56.7019L245.257 42.0796L249.124 43.3508L249.626 61.8881L246.115 60.7339L246.062 57.2205ZM246.034 54.2675L245.915 46.5538L241.242 52.6922L246.034 54.2675Z" fill="white"/>
<path d="M255.538 61.8361L260.73 64.2905L259.545 66.7961L251.193 62.8477L258.642 47.0916L261.802 48.5856L255.538 61.8361Z" fill="white"/>
<path d="M58.7293 153.255L61.0783 148.241L63.4978 149.375L59.7189 157.44L44.5046 150.311L45.9345 147.259L58.7293 153.255Z" fill="white"/>
<path d="M68.7239 141.052C67.8688 142.371 66.7737 143.383 65.4387 144.086C64.1037 144.789 62.6813 145.11 61.1716 145.05C59.6484 144.981 58.1932 144.497 56.806 143.598C55.4323 142.708 54.4094 141.586 53.7374 140.233C53.0518 138.871 52.7571 137.437 52.853 135.932C52.949 134.426 53.4246 133.013 54.2797 131.693C55.1435 130.36 56.2386 129.349 57.5649 128.659C58.8999 127.956 60.3246 127.646 61.8391 127.728C63.3488 127.789 64.7905 128.264 66.1643 129.154C67.5514 130.053 68.5878 131.183 69.2733 132.545C69.9541 133.885 70.2465 135.307 70.1506 136.813C70.0546 138.319 69.579 139.732 68.7239 141.052ZM66.1987 139.416C66.7484 138.567 67.0441 137.697 67.0859 136.807C67.1141 135.907 66.8892 135.044 66.411 134.218C65.9328 133.392 65.2223 132.674 64.2795 132.063C63.3368 131.452 62.3974 131.102 61.4615 131.012C60.5121 130.913 59.6395 131.064 58.8436 131.467C58.0476 131.869 57.3748 132.494 56.8251 133.342C56.2754 134.191 55.9753 135.067 55.9248 135.972C55.8831 136.862 56.1013 137.721 56.5795 138.547C57.0443 139.364 57.748 140.078 58.6908 140.689C59.6335 141.3 60.5796 141.655 61.529 141.754C62.4784 141.852 63.3578 141.705 64.1671 141.312C64.9718 140.896 65.649 140.264 66.1987 139.416Z" fill="white"/>
<path d="M75.9908 105.179L84.7085 120.29L81.9292 123.127L71.1765 117.008L77.4149 127.735L74.6696 130.572L59.4833 122.031L62.0099 119.451L73.4017 126.466L66.4737 114.895L69.1014 112.212L80.6269 118.987L73.4473 107.776L75.9908 105.179Z" fill="white"/>
</svg>
